<?xml version="1.0" encoding="UTF-8" standalone="no"?><svg xmlns="http://www.w3.org/2000/svg" xmlns:xlink="http://www.w3.org/1999/xlink" fill="#ffffff" height="350.1" preserveAspectRatio="xMidYMid meet" version="1" viewBox="0.0 0.0 420.7 350.1" width="420.7" zoomAndPan="magnify"><g id="change1_1"><path d="M397.456,75.151h-70.789c-12.792,0-23.199,10.406-23.199,23.198v228.587c0,12.792,10.407,23.198,23.199,23.198h70.789 c12.792,0,23.198-10.406,23.198-23.198V98.35C420.654,85.558,410.248,75.151,397.456,75.151z M405.654,326.937 c0,4.521-3.678,8.198-8.198,8.198h-70.789c-4.521,0-8.199-3.678-8.199-8.198V98.35c0-4.521,3.678-8.198,8.199-8.198h70.789 c4.521,0,8.198,3.678,8.198,8.198V326.937z M245.722,140.031h-70.789c-12.792,0-23.199,10.406-23.199,23.198v163.707 c0,12.792,10.407,23.198,23.199,23.198h70.789c12.792,0,23.198-10.406,23.198-23.198V163.229 C268.92,150.438,258.514,140.031,245.722,140.031z M253.92,326.937c0,4.521-3.678,8.198-8.198,8.198h-70.789 c-4.521,0-8.199-3.678-8.199-8.198V163.229c0-4.521,3.678-8.198,8.199-8.198h70.789c4.521,0,8.198,3.678,8.198,8.198V326.937z M93.987,204.911H23.199C10.407,204.911,0,215.317,0,228.109v98.827c0,12.792,10.407,23.198,23.199,23.198h70.789 c12.792,0,23.199-10.406,23.199-23.198v-98.827C117.186,215.317,106.779,204.911,93.987,204.911z M102.186,326.937 c0,4.521-3.678,8.198-8.199,8.198H23.199c-4.521,0-8.199-3.678-8.199-8.198v-98.827c0-4.521,3.678-8.198,8.199-8.198h70.789 c4.521,0,8.199,3.678,8.199,8.198V326.937z M288.856,0h-54.394c-4.143,0-7.5,3.357-7.5,7.5s3.357,7.5,7.5,7.5h36.739 l-79.127,76.084L143.173,54.95c-3.022-2.233-7.231-1.886-9.845,0.815L14.541,178.452c-2.881,2.976-2.805,7.724,0.171,10.605 c1.457,1.41,3.337,2.111,5.216,2.111c1.96,0,3.918-0.764,5.389-2.283L139.538,70.915l48.715,35.995 c2.94,2.172,7.021,1.907,9.655-0.626l83.448-80.239v38.124c0,4.143,3.357,7.5,7.5,7.5s7.5-3.357,7.5-7.5V7.5 C296.356,3.357,292.999,0,288.856,0z" fill="inherit"/></g></svg>