<?xml version="1.0" encoding="UTF-8" standalone="no"?><svg xmlns="http://www.w3.org/2000/svg" xmlns:xlink="http://www.w3.org/1999/xlink" fill="#000000" height="57.7" preserveAspectRatio="xMidYMid meet" version="1" viewBox="-0.7 -0.7 42.9 57.7" width="42.9" zoomAndPan="magnify"><g data-name="Layer 2"><g data-name="Layer 1" fill="#fffbfc" id="change1_1"><path d="M37.55,30a5.61,5.61,0,0,1,1.65-4,7.54,7.54,0,0,0,0-10.65,5.57,5.57,0,0,1-1.65-4A7.54,7.54,0,0,0,30,3.85,5.57,5.57,0,0,1,26,2.2a7.54,7.54,0,0,0-10.65,0,5.59,5.59,0,0,1-4,1.65,7.54,7.54,0,0,0-7.53,7.53,5.61,5.61,0,0,1-1.65,4A7.52,7.52,0,0,0,2.21,26a5.65,5.65,0,0,1,1.65,4A7.53,7.53,0,0,0,10,37.41L2.41,55.72A.95.95,0,0,0,3.28,57l.18,0L20.7,53.65,37.94,57l.18,0a1,1,0,0,0,.73-.35.93.93,0,0,0,.14-1L31.38,37.41A7.54,7.54,0,0,0,37.55,30ZM30,35.66h0a7.5,7.5,0,0,0-5.33,2.2,5.65,5.65,0,0,1-8,0,7.47,7.47,0,0,0-5.32-2.2h0A5.66,5.66,0,0,1,5.74,30a7.47,7.47,0,0,0-2.2-5.32,5.65,5.65,0,0,1,0-8,7.48,7.48,0,0,0,2.2-5.33,5.65,5.65,0,0,1,5.65-5.64,7.47,7.47,0,0,0,5.32-2.2,5.65,5.65,0,0,1,8,0A7.5,7.5,0,0,0,30,5.74a5.65,5.65,0,0,1,5.64,5.64,7.48,7.48,0,0,0,2.2,5.33,5.63,5.63,0,0,1,0,8A7.47,7.47,0,0,0,35.66,30,5.66,5.66,0,0,1,30,35.66ZM19.76,46.9v5L12.64,53.3l2.73-7.52a.93.93,0,0,0-.56-1.2.91.91,0,0,0-.32-.06,1,1,0,0,0-.89.62l-3.12,8.58-5.65,1.1L12,37.58a5.66,5.66,0,0,1,3.38,1.61,7.52,7.52,0,0,0,10.65,0,5.66,5.66,0,0,1,3.37-1.61l7.18,17.24-5.66-1.1L27.8,45.14a.94.94,0,0,0-.88-.62,1,1,0,0,0-.33.06.93.93,0,0,0-.56,1.2l2.73,7.52-7.11-1.39v-5a.95.95,0,1,0-1.89,0Z" fill="inherit"/><path d="M26.8,14.67a.91.91,0,0,0-.48-.13.94.94,0,0,0-.81.46L19.16,25.66,14.68,20a.94.94,0,0,0-.74-.35.91.91,0,0,0-.58.2.94.94,0,0,0-.15,1.33l5.32,6.71a1,1,0,0,0,.74.35h.06a.94.94,0,0,0,.75-.46L27.13,16A1,1,0,0,0,26.8,14.67Z" fill="inherit"/><path d="M20.7,7A13.7,13.7,0,1,0,34.4,20.7,13.72,13.72,0,0,0,20.7,7Zm0,25.51A11.81,11.81,0,1,1,32.51,20.7,11.83,11.83,0,0,1,20.7,32.51Z" fill="inherit"/></g></g></svg>