<?xml version="1.0" encoding="UTF-8" standalone="no"?><svg xmlns="http://www.w3.org/2000/svg" xmlns:xlink="http://www.w3.org/1999/xlink" fill="#ffffff" height="2742.1" preserveAspectRatio="xMidYMid meet" version="1" viewBox="197.8 565.1 3482.9 2742.1" width="3482.9" zoomAndPan="magnify"><g><g clip-rule="evenodd" fill-rule="evenodd" id="change1_1"><path d="M2166.2,3307.2c-78,0-156-15-229.3-44.9L1138.6,2966c-51.2-18.9-102.4-33.1-151.3-41.8 c-99.3-18.9-201.7-20.5-305-6.3l-137.1,20.5c-22.1,3.2-41.8-11.8-44.9-33.1c-3.2-22.1,11.8-41.8,33.1-44.9l137.1-20.5 c111.9-15.8,223-13.4,331,6.3c52.8,9.5,108.7,24.4,164.7,44.9l799,296.3c0.8,0,0.8,0,0.8,0.8c138.7,56.7,296.3,51.2,431-14.2 l1123.7-542.1c32.3-15,55.9-41.8,67-75.6c11.8-33.9,9.5-69.3-7.1-101.7c-22.9-44.9-67.8-72.5-117.4-72.5c-11,0-22.9,1.6-35.5,4.7 l-940.1,279.7c-21.3,6.3-43.3-5.5-49.6-26.8c-6.3-21.3,5.5-43.3,26.8-49.6l940.9-279.7c0.8,0,0.8,0,0.8,0 c18.9-4.7,38.6-7.9,55.9-7.9c79.6,0,152.1,44.9,189.1,116.6c25.2,51.2,29.2,108.7,11,163.1c-18.1,53.6-56.7,96.9-108,121.4 l-1122.1,542.9C2349,3287.5,2257.6,3307.2,2166.2,3307.2L2166.2,3307.2z"/><path d="M2326.2,2819.4c-18.9,0-38.6-3.2-57.5-8.7l-697.4-214.3c-21.3-6.3-33.1-28.4-26-49.6 c6.3-21.3,28.4-33.1,49.6-26l697.4,214.3c57.5,18.1,118.2-11.8,137.9-69.3c3.9-12.6,6.3-25.2,6.3-37c0-3.9,0-7.9,0-11v-0.8 c-3.9-34.7-24.4-66.2-53.6-83.5l-856.5-348.3c-189.1-77.2-397.1-108-602.8-88.3l-379,43.3c-22.1,2.4-41.8-13.4-44.1-34.7 c-2.4-22.1,13.4-41.8,34.7-44.1l379-43.3h0.8c218.3-21.3,439.7,11,640.6,93.8l858.9,349.1c1.6,0.8,3.2,1.6,4.7,2.4 c52.8,29.9,88.3,83.5,96.1,144.2c0.8,7.9,0.8,15.8,0.8,22.1c0,20.5-3.2,41.8-11,63C2477.4,2769.8,2405,2819.4,2326.2,2819.4 L2326.2,2819.4L2326.2,2819.4z"/><path d="M278.2,3018.8h104c65.4,0,118.2-52.8,118.2-118.2V2100c0-65.4-52.8-118.2-118.2-118.2h-104 V3018.8z M382.2,3098.4H238c-22.1,0-40.2-18.1-40.2-39.4V1942.4c0-22.1,18.1-40.2,40.2-40.2h143.4c108.7,0,197.8,89,197.8,197.8 v800.6C580,3009.3,490.9,3098.4,382.2,3098.4L382.2,3098.4L382.2,3098.4z"/><path d="M1275,1766.7h2107.1V645.4H1275V1766.7z M3386,1846.3H1269.5c-41,0-74.9-33.9-74.9-75.6 v-1130c0-41.8,33.9-75.6,75.6-75.6H3386c41.8,0,75.6,33.9,75.6,75.6v1130C3461.7,1812.4,3427.8,1846.3,3386,1846.3z"/><path d="M1666.6,1578.3h1322.3c17.3-99.3,99.3-178.1,202.5-194.6v-357 c-50.4-7.9-96.9-30.7-133.2-66.2c-37-35.5-60.7-80.4-69.3-128.4H1666.6c-8.7,48.9-32.3,93.8-68.6,129.2 c-37,36.2-83.5,58.3-134,65.4v355.4c50.4,7.1,96.9,29.9,134,66.2C1634.3,1484.6,1657.9,1529.5,1666.6,1578.3L1666.6,1578.3z M3025.1,1657.9H1630.4c-10.2,0-20.5-3.9-28.4-11.8c-7.1-7.1-11.8-17.3-11.8-28.4c0-41.8-17.3-82-48.1-111.9 c-31.5-30.7-73.3-47.3-117.4-45.7c-11,0-21.3-3.9-29.2-11c-7.9-7.9-11.8-18.1-11.8-28.4V990.5c0-11,4.7-21.3,11.8-28.4 c7.9-7.9,18.1-11.8,29.2-11c44.1,1.6,85.9-15,117.4-45.7c30.7-29.9,48.1-70.1,48.1-112.7c0-10.2,3.9-20.5,11.8-28.4 c7.1-7.1,17.3-11.8,28.4-11.8h1394.7c10.2,0,20.5,3.9,28.4,11.8c7.1,7.1,11.8,17.3,11.8,28.4c0,41.8,17.3,81.2,48.1,111.1 c31.5,29.9,73.3,46.5,118.2,46.5c10.2,0,20.5,3.9,28.4,11.8c7.1,7.1,11.8,17.3,11.8,28.4v430.2c0,22.1-18.1,40.2-40.2,40.2 c-91.4,0-166.3,70.9-166.3,157.6C3065.3,1639.8,3047.2,1657.9,3025.1,1657.9L3025.1,1657.9L3025.1,1657.9z"/><path d="M2327.7,977.1c-126.1,0-228.5,102.4-228.5,228.5s102.4,228.5,228.5,228.5 s228.5-102.4,228.5-228.5S2453.8,977.1,2327.7,977.1L2327.7,977.1z M2327.7,1514.5c-170.2,0-308.1-138.7-308.1-308.1 c0-170.2,137.9-308.1,308.1-308.1c170.2,0,308.1,138.7,308.1,308.1S2497.9,1514.5,2327.7,1514.5L2327.7,1514.5z"/><path d="M2235.5,1152c-10.2,0-20.5-3.9-28.4-11.8c-1.6-1.6-3.2-3.9-4.7-6.3c-1.6-2.4-2.4-4.7-3.9-7.1 c-0.8-2.4-1.6-4.7-2.4-7.1c-0.8-2.4-0.8-5.5-0.8-7.9s0-5.5,0.8-7.9c0.8-2.4,1.6-4.7,2.4-7.1c0.8-2.4,2.4-4.7,3.9-7.1 c1.6-2.4,3.2-3.9,4.7-6.3c9.5-9.5,22.9-13.4,36.2-11c2.4,0.8,4.7,1.6,7.1,2.4c2.4,0.8,4.7,2.4,7.1,3.9s3.9,3.2,6.3,4.7 c1.6,1.6,3.2,3.9,4.7,6.3c1.6,2.4,2.4,4.7,3.9,7.1c0.8,2.4,1.6,4.7,2.4,7.1c0.8,2.4,0.8,5.5,0.8,7.9c0,10.2-3.9,20.5-11.8,28.4 c-1.6,1.6-3.9,3.2-6.3,4.7s-4.7,2.4-7.1,3.9c-2.4,0.8-4.7,1.6-7.1,2.4C2240.3,1152,2237.9,1152,2235.5,1152L2235.5,1152z"/><path d="M2419.9,1338c-2.4,0-5.5,0-7.9-0.8c-2.4-0.8-4.7-1.6-7.1-2.4c-2.4-0.8-4.7-2.4-7.1-3.9 c-2.4-1.6-3.9-3.2-6.3-4.7c-1.6-1.6-3.2-3.9-4.7-6.3c-1.6-2.4-2.4-4.7-3.9-7.1c-0.8-2.4-1.6-4.7-2.4-7.1c-0.8-2.4-0.8-5.5-0.8-7.9 s0-5.5,0.8-7.9c0.8-2.4,1.6-4.7,2.4-7.1c0.8-2.4,2.4-4.7,3.9-7.1c1.6-2.4,3.2-3.9,4.7-6.3c9.5-9.5,22.9-13.4,36.2-11 c2.4,0.8,4.7,1.6,7.1,2.4c2.4,0.8,4.7,2.4,7.1,3.9c2.4,1.6,3.9,3.2,6.3,4.7c1.6,1.6,3.2,3.9,4.7,6.3c1.6,2.4,2.4,4.7,3.9,7.1 c0.8,2.4,1.6,4.7,2.4,7.1c0.8,2.4,0.8,5.5,0.8,7.9c0,10.2-3.9,20.5-11.8,28.4c-1.6,1.6-3.9,3.2-6.3,4.7c-2.4,1.6-4.7,2.4-7.1,3.9 c-2.4,0.8-4.7,1.6-7.1,2.4C2425.4,1338,2422.3,1338,2419.9,1338L2419.9,1338L2419.9,1338z"/><path d="M2239.5,1334.1c-10.2,0-20.5-3.9-28.4-11.8c-15.8-15.8-15.8-41,0-55.9l178.1-178.1 c15.8-15.8,41-15.8,55.9,0c15.8,15.8,15.8,41,0,55.9l-178.1,178.1C2259.2,1330.1,2248.9,1334.1,2239.5,1334.1L2239.5,1334.1z"/><path d="M1743.8,1154.4c-28.4,0-51.2,22.9-51.2,51.2c0,28.4,22.9,51.2,51.2,51.2s51.2-22.9,51.2-51.2 C1795,1177.3,1772.2,1154.4,1743.8,1154.4L1743.8,1154.4z M1743.8,1336.4c-71.7,0-130.8-58.3-130.8-130.8 c0-71.7,58.3-130.8,130.8-130.8c71.7,0,130.8,58.3,130.8,130.8C1874.6,1278.1,1815.5,1336.4,1743.8,1336.4L1743.8,1336.4z"/><path d="M2912.4,1154.4c-28.4,0-51.2,22.9-51.2,51.2c0,28.4,22.9,51.2,51.2,51.2 c28.4,0,51.2-22.9,51.2-51.2C2962.9,1177.3,2940,1154.4,2912.4,1154.4L2912.4,1154.4L2912.4,1154.4z M2912.4,1336.4 c-71.7,0-130.8-58.3-130.8-130.8c0-71.7,58.3-130.8,130.8-130.8c71.7,0,130.8,58.3,130.8,130.8 C3042.4,1278.1,2984.1,1336.4,2912.4,1336.4L2912.4,1336.4L2912.4,1336.4z"/></g></g><path d="M0 0H3873V3873H0z" fill="none"/></svg>